<?xml version="1.0" encoding="UTF-8"?>
<svg version="1.1" xmlns="http://www.w3.org/2000/svg" width="2000" height="1500">
<path d="M0 0 C660 0 1320 0 2000 0 C2000 495 2000 990 2000 1500 C1340 1500 680 1500 0 1500 C0 1005 0 510 0 0 Z " fill="#EEEEEE" transform="translate(0,0)"/>
<path d="M0 0 C91.41 0 182.82 0 277 0 C288.78962942 25.93718473 288.78962942 25.93718473 293.3125 37.5625 C293.57669739 38.23690125 293.84089478 38.91130249 294.11309814 39.60614014 C306.01707266 70.04224888 316.52230468 100.91818744 324.6015625 132.59375 C325.63769079 136.64161472 326.73814597 140.66461952 327.88989258 144.6809082 C334.05064253 166.20532109 338.29837095 188.12784297 342.29223633 210.13598633 C342.91224207 213.52088832 343.54831735 216.9020924 344.19110107 220.28269958 C345.40746764 226.69231582 346.55252 233.09769326 347.4375 239.5625 C347.55673828 240.42069336 347.67597656 241.27888672 347.79882812 242.16308594 C348.20438971 245.10803949 348.60201802 248.05401313 349 251 C349.1561377 252.13356934 349.31227539 253.26713867 349.47314453 254.43505859 C352.12959198 273.78843382 354.26624111 293.15341632 355.80993652 312.62872314 C356.00752931 315.09393748 356.21284632 317.55843237 356.41894531 320.02294922 C359.10578677 352.85032929 359 384.89751108 359 418 C294.98 418 230.96 418 165 418 C163.35 403.15 161.7 388.3 160 373 C157.50013318 355.89153642 154.36967828 338.95447388 151 322 C147.84529397 321.67275578 147.84529397 321.67275578 145.58325195 324.09204102 C144.6273543 325.05520447 143.67955588 326.02644719 142.73828125 327.00390625 C142.2287944 327.52000961 141.71930756 328.03611298 141.19438171 328.56785583 C139.55985918 330.22581093 137.93575586 331.89351862 136.3125 333.5625 C134.18746629 335.73429406 132.05815125 337.90181572 129.92578125 340.06640625 C129.41018143 340.59036987 128.8945816 341.1143335 128.36335754 341.6541748 C124.40716292 345.64919181 120.28324042 349.3645086 116 353 C114.22429779 354.61967817 112.45291693 356.24411718 110.6875 357.875 C106.22477168 361.94540056 101.63742 365.80176909 96.9375 369.59375 C94.23898698 371.80423407 91.59201488 374.06036412 88.95556641 376.34375 C78.47164606 385.42344461 67.58793586 393.88032747 56.4375 402.125 C55.32338745 402.94943604 55.32338745 402.94943604 54.18676758 403.79052734 C52.69394172 404.88689463 51.19027124 405.96865816 49.675807 407.03493595 C46.95002268 408.98313851 46.95002268 408.98313851 44.35564899 411.27996731 C34.75499474 419.01236241 26.63267476 419.24591649 14.6237793 419.02172852 C12.70070516 419.01918509 10.77762231 419.02062413 8.85455322 419.02571106 C3.67082403 419.02827754 -1.51100417 418.97562732 -6.69429421 418.91254544 C-12.12472478 418.85601565 -17.55520621 418.8509759 -22.98588562 418.84031677 C-33.25295876 418.81242177 -43.51916219 418.73867339 -53.78585356 418.64817137 C-65.48109339 418.5473299 -77.17637628 418.49802922 -88.87194312 418.45291245 C-112.9151096 418.35901642 -136.95750592 418.200867 -161 418 C-161.48210205 414.82995382 -161.96160343 411.6595193 -162.44067383 408.48901367 C-162.57580635 407.60066582 -162.71093887 406.71231796 -162.85016632 405.79705048 C-169.83806981 359.46570103 -169.62472374 311.26478028 -162.31958008 265.02301025 C-162.02323924 263.14710939 -161.73678324 261.26965425 -161.45117188 259.39208984 C-159.65637696 247.77343218 -157.17721945 236.35514732 -153.6105957 225.14282227 C-152.9427635 222.94337283 -152.9427635 222.94337283 -152.55151367 220.40209961 C-151.98708322 217.62860953 -151.39285084 215.46862995 -150 213 C-146.7185192 210.83402908 -143.22427286 210.01241148 -139.4375 209.0625 C-137.24469815 208.42060317 -135.05465843 207.76921015 -132.8671875 207.109375 C-131.1651416 206.60374023 -131.1651416 206.60374023 -129.42871094 206.08789062 C-96.23319533 195.55533455 -64.03935286 176.78781491 -36.7421875 155.36132812 C-35.03884783 154.03035531 -33.3201882 152.72269823 -31.59375 151.421875 C-16.7963276 140.24742032 -1.4999565 128.21807885 10.390625 113.9140625 C11.52771819 112.56169439 12.70999313 111.2467146 13.921875 109.9609375 C24.26166906 98.97962338 33.13352976 86.51095412 40.9375 73.625 C41.36861084 72.93011475 41.79972168 72.23522949 42.24389648 71.51928711 C43.80886469 68.84416444 44.97776932 66.66797904 45.08203125 63.53515625 C43.42280285 59.64765 41.14036955 56.28728842 38.75 52.8125 C38.2149585 52.02439941 37.67991699 51.23629883 37.12866211 50.42431641 C35.43232909 47.94010957 33.71996169 45.46789848 32 43 C31.19296631 41.84201904 31.19296631 41.84201904 30.36962891 40.66064453 C22.22515465 29.04662921 13.6788257 17.70412968 4.28857422 7.06005859 C3.73830566 6.43566895 3.18803711 5.8112793 2.62109375 5.16796875 C1.86783813 4.32721802 1.86783813 4.32721802 1.09936523 3.46948242 C0 2 0 2 0 0 Z " fill="#D94E28" transform="translate(922,595)"/>
<path d="M0 0 C0.66 0 1.32 0 2 0 C22.87396044 40.82680246 40.10677448 82.5825067 54.39172363 126.14959717 C54.94283454 127.82610022 55.50357915 129.49942883 56.06542969 131.17236328 C56.35063477 132.05520996 56.63583984 132.93805664 56.9296875 133.84765625 C57.16671387 134.57090088 57.40374023 135.29414551 57.64794922 136.03930664 C58.08248213 138.45937167 57.92672427 139.71580091 57 142 C55.26928711 144.0871582 55.26928711 144.0871582 53.02734375 146.30078125 C52.20943359 147.11353516 51.39152344 147.92628906 50.54882812 148.76367188 C49.68708984 149.60478516 48.82535156 150.44589844 47.9375 151.3125 C47.10283203 152.14201172 46.26816406 152.97152344 45.40820312 153.82617188 C22.3180802 176.62834315 -4.36808463 195.53486426 -32.4375 211.6875 C-33.35635986 212.21738525 -34.27521973 212.74727051 -35.22192383 213.29321289 C-36.0755249 213.77781982 -36.92912598 214.26242676 -37.80859375 214.76171875 C-38.56970459 215.19444092 -39.33081543 215.62716309 -40.11499023 216.07299805 C-42 217 -42 217 -44 217 C-44.52870141 172.29535843 -34.50998878 126.19888233 -23.75341797 83.05957031 C-22.93107319 79.72009371 -22.15616015 76.37216918 -21.39624023 73.01806641 C-17.04404151 53.87209798 -10.93895523 35.17670842 -5.07714844 16.453125 C-3.36799267 10.97390942 -1.68288797 5.48733139 0 0 Z " fill="#EEEDED" transform="translate(1000,713)"/>
</svg>
